<svg width="750" height="500" viewBox="0 0 750 500" fill="none" xmlns="http://www.w3.org/2000/svg">
<path d="M706.09 271C704.77 254.397 701.283 238.039 695.72 222.34C684.54 190.96 659.55 134.47 612.72 88.34C543.89 20.48 399.35 20.48 317.72 84.09C236.09 147.7 244 173.11 184 176.29C124 179.47 74.86 173.11 42.41 215.52C9.95995 257.93 -15.76 352.39 48.31 400C112.38 447.61 166.23 434.85 227.31 436C288.39 437.15 330.56 464.63 429.87 464.63C529.18 464.63 621.56 472.08 672.69 418C709.17 379.44 709.11 308.49 706.09 271Z" fill="#20AD46"/>
<path opacity="0.7" d="M706.09 271C704.77 254.397 701.283 238.039 695.72 222.34C684.54 190.96 659.55 134.47 612.72 88.34C543.89 20.48 399.35 20.48 317.72 84.09C236.09 147.7 244 173.11 184 176.29C124 179.47 74.86 173.11 42.41 215.52C9.95995 257.93 -15.76 352.39 48.31 400C112.38 447.61 166.23 434.85 227.31 436C288.39 437.15 330.56 464.63 429.87 464.63C529.18 464.63 621.56 472.08 672.69 418C709.17 379.44 709.11 308.49 706.09 271Z" fill="white"/>
<g opacity="0.3">
<path opacity="0.3" d="M521 21.21V322H618.7V21.21H521ZM613.78 27.9V72.29H573.07V27.9H613.78ZM567 27.9V72.29H525.87V27.9H567ZM525.87 79.33H567V123.38H525.87V79.33ZM613.73 315.33H525.87V131H613.73V315.33ZM573.07 123.38V79.38H613.73V123.43L573.07 123.38Z" stroke="black" stroke-linecap="round" stroke-linejoin="round"/>
<path opacity="0.3" d="M618.27 21.21V322H716V21.21H618.27ZM711.06 27.9V72.29H670.39V27.9H711.06ZM664.32 27.9V72.29H623.19V27.9H664.32ZM623.19 79.33H664.32V123.38H623.19V79.33ZM711.06 315.33H623.19V131H711.06V315.33ZM670.39 123.38V79.38H711.06V123.43L670.39 123.38Z" stroke="black" stroke-linecap="round" stroke-linejoin="round"/>
<path opacity="0.3" d="M591.86 180.95L567.33 211.48" stroke="black" stroke-linecap="round" stroke-linejoin="round"/>
<path opacity="0.3" d="M597.95 173.37L594.05 178.22" stroke="black" stroke-linecap="round" stroke-linejoin="round"/>
<path opacity="0.3" d="M540.66 233.74L535.64 239.65" stroke="black" stroke-linecap="round" stroke-linejoin="round"/>
<path opacity="0.3" d="M573.24 195.46L544.42 229.32" stroke="black" stroke-linecap="round" stroke-linejoin="round"/>
<path opacity="0.3" d="M690.7 190.27L666.17 220.8" stroke="black" stroke-linecap="round" stroke-linejoin="round"/>
<path opacity="0.3" d="M696.79 182.69L692.89 187.55" stroke="black" stroke-linecap="round" stroke-linejoin="round"/>
<path opacity="0.3" d="M639.5 243.06L634.48 248.97" stroke="black" stroke-linecap="round" stroke-linejoin="round"/>
<path opacity="0.3" d="M672.08 204.78L643.26 238.65" stroke="black" stroke-linecap="round" stroke-linejoin="round"/>
<path opacity="0.3" d="M702.03 34.87L690.29 49.49" stroke="black" stroke-linecap="round" stroke-linejoin="round"/>
<path opacity="0.3" d="M704.94 31.25L703.07 33.57" stroke="black" stroke-linecap="round" stroke-linejoin="round"/>
<path opacity="0.3" d="M677.52 60.14L675.12 62.97" stroke="black" stroke-linecap="round" stroke-linejoin="round"/>
<path opacity="0.3" d="M693.11 41.82L679.32 58.03" stroke="black" stroke-linecap="round" stroke-linejoin="round"/>
<path opacity="0.3" d="M656.21 34.87L644.47 49.49" stroke="black" stroke-linecap="round" stroke-linejoin="round"/>
<path opacity="0.3" d="M659.12 31.25L657.26 33.57" stroke="black" stroke-linecap="round" stroke-linejoin="round"/>
<path opacity="0.3" d="M631.7 60.14L629.3 62.97" stroke="black" stroke-linecap="round" stroke-linejoin="round"/>
<path opacity="0.3" d="M647.3 41.82L633.5 58.03" stroke="black" stroke-linecap="round" stroke-linejoin="round"/>
<path opacity="0.3" d="M656.21 89.62L644.47 104.23" stroke="black" stroke-linecap="round" stroke-linejoin="round"/>
<path opacity="0.3" d="M659.12 85.99L657.26 88.32" stroke="black" stroke-linecap="round" stroke-linejoin="round"/>
<path opacity="0.3" d="M631.7 114.89L629.3 117.72" stroke="black" stroke-linecap="round" stroke-linejoin="round"/>
<path opacity="0.3" d="M647.3 96.57L633.5 112.78" stroke="black" stroke-linecap="round" stroke-linejoin="round"/>
<path opacity="0.3" d="M697.07 89.62L685.33 104.23" stroke="black" stroke-linecap="round" stroke-linejoin="round"/>
<path opacity="0.3" d="M699.99 85.99L698.12 88.32" stroke="black" stroke-linecap="round" stroke-linejoin="round"/>
<path opacity="0.3" d="M672.57 114.89L670.16 117.72" stroke="black" stroke-linecap="round" stroke-linejoin="round"/>
<path opacity="0.3" d="M688.16 96.57L674.37 112.78" stroke="black" stroke-linecap="round" stroke-linejoin="round"/>
<path opacity="0.3" d="M605.44 34.87L593.7 49.49" stroke="black" stroke-linecap="round" stroke-linejoin="round"/>
<path opacity="0.3" d="M608.35 31.25L606.49 33.57" stroke="black" stroke-linecap="round" stroke-linejoin="round"/>
<path opacity="0.3" d="M580.93 60.14L578.53 62.97" stroke="black" stroke-linecap="round" stroke-linejoin="round"/>
<path opacity="0.3" d="M596.53 41.82L582.73 58.03" stroke="black" stroke-linecap="round" stroke-linejoin="round"/>
<path opacity="0.3" d="M605.44 88.35L593.7 102.96" stroke="black" stroke-linecap="round" stroke-linejoin="round"/>
<path opacity="0.3" d="M608.35 84.72L606.49 87.04" stroke="black" stroke-linecap="round" stroke-linejoin="round"/>
<path opacity="0.3" d="M580.93 113.62L578.53 116.44" stroke="black" stroke-linecap="round" stroke-linejoin="round"/>
<path opacity="0.3" d="M596.53 95.29L582.73 111.5" stroke="black" stroke-linecap="round" stroke-linejoin="round"/>
<path opacity="0.3" d="M560.86 88.35L549.12 102.96" stroke="black" stroke-linecap="round" stroke-linejoin="round"/>
<path opacity="0.3" d="M563.77 84.72L561.91 87.04" stroke="black" stroke-linecap="round" stroke-linejoin="round"/>
<path opacity="0.3" d="M536.35 113.62L533.95 116.44" stroke="black" stroke-linecap="round" stroke-linejoin="round"/>
<path opacity="0.3" d="M551.95 95.29L538.15 111.5" stroke="black" stroke-linecap="round" stroke-linejoin="round"/>
<path opacity="0.3" d="M557.76 34.87L546.02 49.49" stroke="black" stroke-linecap="round" stroke-linejoin="round"/>
<path opacity="0.3" d="M560.68 31.25L558.81 33.57" stroke="black" stroke-linecap="round" stroke-linejoin="round"/>
<path opacity="0.3" d="M533.26 60.14L530.85 62.97" stroke="black" stroke-linecap="round" stroke-linejoin="round"/>
<path opacity="0.3" d="M548.85 41.82L535.06 58.03" stroke="black" stroke-linecap="round" stroke-linejoin="round"/>
</g>
<g opacity="0.3">
<path opacity="0.3" d="M242 23H75.04V159.5H242V23Z" stroke="black" stroke-linecap="round" stroke-linejoin="round"/>
<g opacity="0.3">
<path opacity="0.3" d="M169.24 145.97C175.161 145.97 179.96 141.171 179.96 135.25C179.96 129.33 175.161 124.53 169.24 124.53C163.32 124.53 158.52 129.33 158.52 135.25C158.52 141.171 163.32 145.97 169.24 145.97Z" stroke="black" stroke-linecap="round" stroke-linejoin="round"/>
</g>
<path opacity="0.3" d="M178.83 65.3C178.832 66.3051 178.536 67.2883 177.979 68.125C177.422 68.9617 176.629 69.6144 175.701 70.0004C174.773 70.3864 173.751 70.4885 172.765 70.2936C171.779 70.0987 170.873 69.6157 170.161 68.9056C169.45 68.1956 168.965 67.2904 168.768 66.3047C168.571 65.319 168.671 64.2971 169.056 63.3683C169.44 62.4394 170.091 61.6455 170.927 61.0868C171.762 60.5282 172.745 60.23 173.75 60.23C175.095 60.23 176.386 60.7638 177.338 61.7143C178.291 62.6649 178.827 63.9544 178.83 65.3V65.3Z" stroke="black" stroke-linecap="round" stroke-linejoin="round"/>
<path opacity="0.3" d="M86.3199 88.43C88.1867 88.43 89.6999 86.9167 89.6999 85.05C89.6999 83.1833 88.1867 81.67 86.3199 81.67C84.4532 81.67 82.9399 83.1833 82.9399 85.05C82.9399 86.9167 84.4532 88.43 86.3199 88.43Z" stroke="black" stroke-linecap="round" stroke-linejoin="round"/>
<path opacity="0.3" d="M117.91 135.81C121.025 135.81 123.55 133.285 123.55 130.17C123.55 127.055 121.025 124.53 117.91 124.53C114.795 124.53 112.27 127.055 112.27 130.17C112.27 133.285 114.795 135.81 117.91 135.81Z" stroke="black" stroke-linecap="round" stroke-linejoin="round"/>
<path opacity="0.3" d="M242 140.15L236.14 136.93C200.94 117.59 198.08 68.1 230.82 44.82L242 36.82" stroke="black" stroke-linecap="round" stroke-linejoin="round"/>
<path opacity="0.3" d="M145.46 159.5C138.146 131.409 139.417 101.771 149.11 74.41C156.94 52 165.84 35.3 174.22 23" stroke="black" stroke-linecap="round" stroke-linejoin="round"/>
<path opacity="0.3" d="M104.59 159.5C101.91 139.25 101.53 102.13 121.72 57.29C128.32 42.61 134.65 31.47 140.49 23" stroke="black" stroke-linecap="round" stroke-linejoin="round"/>
<path opacity="0.3" d="M75 64.94C85 52.85 98.79 36.29 110.5 23" stroke="black" stroke-linecap="round" stroke-linejoin="round"/>
</g>
<path d="M98.76 386.64V283.81" stroke="#5E5E5E" stroke-width="4" stroke-miterlimit="10"/>
<path d="M85.97 388.71V246.7" stroke="#5E5E5E" stroke-width="4" stroke-miterlimit="10"/>
<path d="M114.98 389.41V339.53" stroke="#5E5E5E" stroke-width="4" stroke-miterlimit="10"/>
<path d="M81 260.7C81 260.7 78.4301 256 69.8701 245.7C61.3101 235.4 25.8 207.65 25.8 207.65C25.8 207.65 45.9101 218.35 52.3301 223.91C58.7501 229.47 67.3301 236.32 67.3301 236.32C67.3301 236.32 43.33 210.22 40.8 208.5C38.27 206.78 65.17 229 65.17 229C65.17 229 54.9 208.5 49.76 201.66C44.62 194.82 34.76 178.55 34.76 178.55C34.76 178.55 62.57 215.78 63.85 217.92C65.13 220.06 70.7 229.47 70.7 229.47L60.89 203.8L72.89 224.8C72.89 224.8 55.77 189.29 54.89 187.58C54.01 185.87 66.89 204.27 66.89 204.27L55.75 170.85L81.43 223.48L79.7201 202.94L84.42 224.34L85.71 171.71L88.71 223.91C88.71 223.91 93.4201 190.53 94.2701 183.69C95.1201 176.85 95.56 169.57 95.56 169.57C95.56 169.57 94.7 214.92 94.7 216.21C94.7 217.5 93.84 227.76 93.84 227.76L102 203.37C103.72 198.24 105.43 180.69 106.28 178.13C107.13 175.57 102 217.49 101.58 219.2C100.819 221.992 99.8147 224.712 98.58 227.33C97.3 229.9 107.99 211.93 111.85 204.23L122.93 182C122.93 182 116.51 203.39 114.8 207.24C113.09 211.09 102 231.61 102 231.61C102 231.61 118.69 211.93 126 206.79C133.31 201.65 146.54 191.79 146.54 191.79C146.54 191.79 125.15 214.89 120.87 219.17C116.59 223.45 104.18 238.42 104.18 238.42C104.18 238.42 125.58 224.73 126.86 223.42C128.14 222.11 143.55 212.3 143.55 212.3C143.55 212.3 112.41 236.89 111 238.45C98.54 251.72 94.26 258.14 91.7 260.7C89.14 263.26 84.85 264.55 81 260.7Z" fill="#20AD46"/>
<path d="M95.77 298.21C95.77 298.21 94 294.88 87.9 287.62C81.8 280.36 56.72 260.68 56.72 260.68C56.72 260.68 70.95 268.25 75.49 272.18C80.03 276.11 86.08 281 86.08 281C86.08 281 69.08 262.54 67.32 261.33C65.56 260.12 84.57 275.86 84.57 275.86C84.57 275.86 77.3 261.33 73.67 256.49C70.04 251.65 63.08 240.1 63.08 240.1C63.08 240.1 82.75 266.43 83.66 268C84.57 269.57 88.5 276.17 88.5 276.17L81.5 258.01L90 272.79C90 272.79 77.91 247.67 77.3 246.46C76.69 245.25 85.78 258.26 85.78 258.26L77.91 234.66L96.07 271.88L94.86 257.35L98.19 272.49L99.09 235.26L101.21 272.18C101.21 272.18 104.54 248.58 105.15 243.74C105.76 238.9 106.06 233.74 106.06 233.74C106.06 233.74 105.45 265.82 105.45 266.74C105.45 267.66 104.84 274.91 104.84 274.91L110.59 257.66C111.81 254.03 113.02 241.66 113.59 239.8C114.16 237.94 110.59 267.64 110.26 268.86C109.726 270.836 109.016 272.76 108.14 274.61C107.24 276.42 114.8 263.71 117.53 258.26L125.39 242.53C125.39 242.53 120.85 257.66 119.64 260.38C118.43 263.1 110.56 277.63 110.56 277.63C110.56 277.63 122.37 263.71 127.56 260.08C132.75 256.45 142.09 249.49 142.09 249.49C142.09 249.49 126.96 265.83 123.93 268.86C120.9 271.89 112.13 282.47 112.13 282.47C112.13 282.47 127.26 272.79 128.13 271.88C129 270.97 140 264 140 264C140 264 118 281.36 117 282.46C108.22 291.85 105.2 296.39 103.38 298.2C102.911 298.751 102.329 299.194 101.672 299.498C101.016 299.802 100.301 299.96 99.5773 299.961C98.8537 299.962 98.1386 299.806 97.4813 299.504C96.824 299.201 96.2401 298.76 95.77 298.21V298.21Z" fill="#20AD46"/>
<path d="M111.17 341.43C111.17 341.43 109.35 338.1 103.3 330.83C97.2501 323.56 72.1301 303.9 72.1301 303.9C72.1301 303.9 86.3501 311.46 90.8901 315.4C95.4301 319.34 101.48 324.18 101.48 324.18C101.48 324.18 84.5401 305.71 82.7201 304.5C80.9001 303.29 100 319 100 319C100 319 92.7401 304.47 89.1101 299.63C85.4801 294.79 78.5101 283.29 78.5101 283.29C78.5101 283.29 98.1801 309.62 99.0901 311.13C100 312.64 103.93 319.3 103.93 319.3L96.9301 301.14L105.42 316C105.42 316 93.3101 290.88 92.7101 289.67C92.1101 288.46 101.18 301.48 101.18 301.48L93.3101 277.87L111.47 315.1L110.26 300.57L113.59 315.7L114.5 278.48L116.62 315.4C116.62 315.4 120 291.79 120.55 287C121.1 282.21 121.46 277 121.46 277C121.46 277 120.85 309.08 120.85 310C120.85 310.92 120.25 318.17 120.25 318.17L126 300.87C127.21 297.24 128.42 284.87 129 283.02C129.58 281.17 126 310.86 125.68 312.07C125.137 314.043 124.428 315.967 123.56 317.82C122.65 319.64 130.22 306.93 132.94 301.48C135.66 296.03 140.81 285.74 140.81 285.74C140.81 285.74 136.27 300.87 135.06 303.6C133.85 306.33 126 320.85 126 320.85C126 320.85 137.8 306.93 142.95 303.29C148.1 299.65 157.47 292.7 157.47 292.7C157.47 292.7 142.34 309 139.31 312.07C136.28 315.14 127.51 325.69 127.51 325.69C127.51 325.69 142.64 316 143.51 315.1C144.38 314.2 155.31 307.23 155.31 307.23C155.31 307.23 133.31 324.58 132.31 325.69C123.54 335.07 120.51 339.61 118.69 341.43C118.221 341.965 117.643 342.394 116.994 342.688C116.346 342.982 115.642 343.134 114.93 343.134C114.218 343.134 113.514 342.982 112.866 342.688C112.218 342.394 111.639 341.965 111.17 341.43V341.43Z" fill="#20AD46"/>
<path d="M130.32 422.69C130.32 442.89 125.01 460.69 116.89 471.5H80.89C72.78 460.73 67.46 442.89 67.46 422.69C67.46 420.92 67.46 419.17 67.58 417.45C67.7876 413.075 68.2618 408.717 69 404.4C69.27 402.82 69.57 401.26 69.91 399.74C70.19 398.47 70.48 397.24 70.81 396.01C72.1786 390.633 74.1546 385.43 76.7 380.5H121.08C123.631 385.427 125.617 390.627 127 396C127.33 397.23 127.63 398.46 127.91 399.73C128.24 401.25 128.54 402.81 128.81 404.39C129.538 408.708 130.002 413.066 130.2 417.44C130.28 419.17 130.32 420.92 130.32 422.69Z" fill="white" stroke="#263238" stroke-miterlimit="10"/>
<path d="M127 396H70.7701C70.4401 397.23 70.1501 398.46 69.8701 399.73H127.87C127.63 398.47 127.33 397.24 127 396ZM128.81 404.39H69.0001C68.272 408.708 67.8079 413.066 67.6101 417.44H130.2C130.002 413.069 129.538 408.714 128.81 404.4V404.39Z" fill="#263238" stroke="#263238" stroke-miterlimit="10"/>
<path d="M148 377L152 368.33L161.33 364.33L169.33 365.67L173.33 369C173.789 370.049 174.018 371.185 174 372.33C174 374.33 172 377 172 377C170.762 378.636 169.426 380.195 168 381.67C166 383.67 165.33 383.67 163.33 385C161.917 385.837 160.312 386.295 158.67 386.33C158.67 386.33 149.33 384.33 148 377Z" fill="white" stroke="#263238" stroke-miterlimit="10"/>
<path d="M148 377L159.29 370.46L168.12 373.08L165.5 378.64L161.25 382.24L158.31 384.53L163.33 385" stroke="#263238" stroke-miterlimit="10"/>
<path d="M159.29 370.46L161.33 364.33L173.33 369L170.74 377.66L165.5 378.64" stroke="#263238" stroke-miterlimit="10"/>
<path d="M152.41 375.04V379.63L158.31 382.57L159.94 376.68L156.67 375.7L155.36 377.33" stroke="#263238" stroke-miterlimit="10"/>
<path d="M174.65 353.48L183.96 355.58L189.82 363.87L190.19 371.97L187.77 376.58C186.836 377.244 185.773 377.704 184.65 377.93C182.65 378.35 179.65 376.93 179.65 376.93C177.792 376.06 175.989 375.078 174.25 373.99C171.87 372.45 171.73 371.8 170.01 370.13C168.895 368.919 168.11 367.442 167.73 365.84C167.73 365.84 167.76 356.31 174.65 353.48Z" fill="white" stroke="#263238" stroke-miterlimit="10"/>
<path d="M174.65 353.48L183.4 363.15L182.69 372.34L176.7 370.94L172.29 367.53L169.44 365.13L170.03 370.14" stroke="#263238" stroke-miterlimit="10"/>
<path d="M183.4 363.15L189.82 363.87L187.77 376.58L178.76 375.86L176.7 370.94" stroke="#263238" stroke-miterlimit="10"/>
<path d="M177.49 357.39L173.01 358.34L171.36 364.72L177.46 365.09L177.74 361.68L175.86 360.75" stroke="#263238" stroke-miterlimit="10"/>
<path d="M216.44 453.84L225.51 450.84L234.79 454.97L239.25 461.74L239.53 466.94C239.066 467.991 238.384 468.932 237.53 469.7C236.07 471.06 232.75 471.4 232.75 471.4C230.71 471.605 228.66 471.685 226.61 471.64C223.78 471.53 223.33 471.05 220.99 470.48C219.415 470.011 217.986 469.147 216.84 467.97C216.84 467.97 212 459.8 216.44 453.84Z" fill="white" stroke="#263238" stroke-miterlimit="10"/>
<path d="M216.44 453.84L228.9 457.68L232.99 465.94L227.13 467.8L221.6 467.12L217.92 466.52L220.99 470.52" stroke="#263238" stroke-miterlimit="10"/>
<path d="M228.9 457.68L234.79 455.01L239.53 466.98L231.41 470.97L227.13 467.8" stroke="#263238" stroke-miterlimit="10"/>
<path d="M220.87 455.75L217.51 458.86L219.36 465.19L224.79 462.38L223.28 459.31L221.19 459.47" stroke="#263238" stroke-miterlimit="10"/>
<path d="M209.09 383.69L200.09 386.83L190.73 382.89L186.14 376.2L185.76 371.01C186.199 369.954 186.857 369.003 187.69 368.22C189.13 366.83 192.44 366.42 192.44 366.42C194.477 366.172 196.528 366.049 198.58 366.05C201.41 366.1 201.87 366.58 204.22 367.1C205.805 367.536 207.252 368.373 208.42 369.53C208.42 369.53 213.44 377.63 209.09 383.69Z" fill="white" stroke="#263238" stroke-miterlimit="10"/>
<path d="M209.09 383.69L196.54 380.1L192.29 371.93L198.12 369.95L203.66 370.51L207.35 371.04L204.2 367.1" stroke="#263238" stroke-miterlimit="10"/>
<path d="M196.54 380.1L190.71 382.89L185.74 371.01L193.77 366.86L198.12 369.95" stroke="#263238" stroke-miterlimit="10"/>
<path d="M204.61 381.87L207.91 378.69L205.94 372.4L200.56 375.31L202.13 378.35L204.22 378.16" stroke="#263238" stroke-miterlimit="10"/>
<path d="M216.86 373.2H144.19L151.46 471.29H209.59L216.86 373.2Z" fill="#20AD46" stroke="#263238" stroke-miterlimit="10"/>
<path d="M330.38 294.39H287.03L288.54 269.25L289.63 251.05H327.77L328.87 269.25L330.38 294.39Z" fill="white" stroke="#263238" stroke-miterlimit="10"/>
<path d="M328.87 269.25H288.54L289.63 251.05H327.77L328.87 269.25Z" fill="#263238" stroke="#263238" stroke-miterlimit="10"/>
<path d="M341.65 290.06H275.76V297H341.65V290.06Z" fill="white" stroke="#263238" stroke-miterlimit="10"/>
<path d="M231.1 138.33H386.3C388.713 138.33 391.028 139.289 392.735 140.995C394.441 142.702 395.4 145.017 395.4 147.43V252.78C395.4 254.849 394.578 256.833 393.115 258.295C391.653 259.758 389.669 260.58 387.6 260.58H229.8C227.731 260.58 225.747 259.758 224.285 258.295C222.822 256.833 222 254.849 222 252.78V147.44C221.999 146.244 222.233 145.06 222.69 143.955C223.147 142.849 223.817 141.845 224.662 140.999C225.507 140.153 226.511 139.482 227.615 139.024C228.72 138.566 229.904 138.33 231.1 138.33V138.33Z" fill="white" stroke="#263238" stroke-miterlimit="10"/>
<path d="M231.1 138.33H386.3C388.713 138.33 391.028 139.289 392.735 140.995C394.441 142.702 395.4 145.017 395.4 147.43V242.37H222V147.44C221.999 146.244 222.233 145.06 222.69 143.955C223.147 142.849 223.817 141.845 224.662 140.999C225.507 140.153 226.511 139.482 227.615 139.024C228.72 138.566 229.904 138.33 231.1 138.33V138.33Z" fill="#263238" stroke="#263238" stroke-miterlimit="10"/>
<path d="M387.6 147H229.8V233.7H387.6V147Z" fill="white" stroke="#263238" stroke-miterlimit="10"/>
<path d="M239.33 199.67H255.33" stroke="#263238" stroke-miterlimit="10"/>
<path d="M239.33 203.67H255.33" stroke="#263238" stroke-miterlimit="10"/>
<path d="M239.33 207.67H255.33" stroke="#263238" stroke-miterlimit="10"/>
<path d="M239.33 211.67H255.33" stroke="#263238" stroke-miterlimit="10"/>
<path d="M255.81 179.08L235.87 160.88" stroke="#263238" stroke-miterlimit="10"/>
<path d="M280.09 212.03L260.15 179.08L295.7 167.81L280.09 212.03ZM280.09 212.03L342.52 209.43L365.93 161.74L300.03 167.81L339.05 204.23" stroke="#263238" stroke-miterlimit="10"/>
<path d="M342.52 209.43L377.2 224.17" stroke="#263238" stroke-miterlimit="10"/>
<path d="M260.15 179.08C260.152 179.939 259.899 180.779 259.423 181.494C258.947 182.209 258.27 182.767 257.478 183.097C256.685 183.427 255.812 183.514 254.969 183.348C254.127 183.181 253.352 182.769 252.744 182.162C252.136 181.556 251.722 180.783 251.554 179.94C251.386 179.098 251.471 178.225 251.799 177.431C252.127 176.638 252.684 175.959 253.398 175.482C254.111 175.005 254.951 174.75 255.81 174.75C256.959 174.75 258.061 175.206 258.875 176.018C259.689 176.829 260.147 177.931 260.15 179.08V179.08Z" fill="white" stroke="#263238" stroke-miterlimit="10"/>
<path d="M346.85 209.43C346.85 210.289 346.595 211.128 346.118 211.842C345.64 212.556 344.962 213.112 344.168 213.441C343.375 213.769 342.502 213.854 341.66 213.686C340.817 213.518 340.044 213.103 339.438 212.495C338.831 211.887 338.418 211.113 338.252 210.271C338.086 209.428 338.173 208.555 338.503 207.762C338.833 206.969 339.391 206.292 340.106 205.817C340.821 205.341 341.661 205.088 342.52 205.09C343.669 205.093 344.771 205.551 345.582 206.365C346.394 207.178 346.85 208.281 346.85 209.43Z" fill="white" stroke="#263238" stroke-miterlimit="10"/>
<path d="M300 167.81C300.002 168.669 299.749 169.51 299.273 170.225C298.796 170.94 298.119 171.498 297.325 171.828C296.532 172.157 295.658 172.244 294.816 172.077C293.973 171.91 293.199 171.496 292.591 170.889C291.983 170.281 291.57 169.507 291.403 168.664C291.236 167.821 291.322 166.948 291.652 166.155C291.982 165.361 292.54 164.683 293.255 164.207C293.97 163.731 294.811 163.478 295.67 163.48C296.818 163.48 297.92 163.936 298.732 164.748C299.544 165.56 300 166.662 300 167.81Z" fill="white" stroke="#263238" stroke-miterlimit="10"/>
<path d="M370.26 161.74C370.262 162.599 370.009 163.44 369.533 164.155C369.057 164.87 368.379 165.428 367.586 165.758C366.792 166.087 365.919 166.174 365.076 166.007C364.233 165.84 363.459 165.426 362.851 164.819C362.244 164.211 361.83 163.437 361.663 162.594C361.496 161.751 361.583 160.878 361.912 160.085C362.242 159.291 362.8 158.613 363.515 158.137C364.23 157.661 365.071 157.408 365.93 157.41C367.078 157.41 368.18 157.866 368.992 158.678C369.804 159.49 370.26 160.592 370.26 161.74V161.74Z" fill="white" stroke="#263238" stroke-miterlimit="10"/>
<path d="M284.43 212C284.432 212.859 284.179 213.699 283.703 214.414C283.228 215.129 282.551 215.687 281.758 216.017C280.965 216.347 280.092 216.434 279.249 216.268C278.407 216.102 277.633 215.689 277.025 215.082C276.417 214.476 276.002 213.703 275.834 212.86C275.666 212.018 275.751 211.145 276.079 210.352C276.408 209.558 276.964 208.879 277.678 208.402C278.392 207.925 279.231 207.67 280.09 207.67C281.239 207.67 282.342 208.126 283.155 208.938C283.969 209.749 284.427 210.851 284.43 212V212Z" fill="white" stroke="#263238" stroke-miterlimit="10"/>
<path d="M227.24 143.94L226.84 156.9H241.01L241.41 144.75L227.24 143.94Z" fill="#20AD46" stroke="#263238" stroke-miterlimit="10"/>
<path d="M384.57 152.61L384.17 165.56H398.34L398.75 153.42L384.57 152.61Z" fill="#20AD46" stroke="#263238" stroke-miterlimit="10"/>
<path d="M215.09 171.07L214.69 184.03H228.86L229.26 171.88L215.09 171.07Z" fill="#20AD46" stroke="#263238" stroke-miterlimit="10"/>
<path d="M217.12 187.67L216.71 200.63H230.88L231.29 188.48L217.12 187.67Z" fill="#20AD46" stroke="#263238" stroke-miterlimit="10"/>
<path d="M222.08 274.28H154.33C151.346 274.28 148.485 275.465 146.375 277.575C144.265 279.685 143.08 282.546 143.08 285.53C143.08 288.514 144.265 291.375 146.375 293.485C148.485 295.595 151.346 296.78 154.33 296.78H222.08C215.66 284.13 222.08 274.28 222.08 274.28Z" fill="#263238" stroke="#263238" stroke-width="3" stroke-miterlimit="10"/>
<path d="M253.17 274.28H185.42C182.436 274.28 179.575 275.465 177.465 277.575C175.355 279.685 174.17 282.546 174.17 285.53C174.17 288.514 175.355 291.375 177.465 293.485C179.575 295.595 182.436 296.78 185.42 296.78H253.17C246.74 284.13 253.17 274.28 253.17 274.28Z" fill="white" stroke="#263238" stroke-miterlimit="10"/>
<path d="M255.14 298.28H185.42C182.039 298.28 178.796 296.937 176.405 294.546C174.013 292.155 172.67 288.912 172.67 285.53C172.67 282.149 174.013 278.905 176.405 276.514C178.796 274.123 182.039 272.78 185.42 272.78H255.14C255.538 272.78 255.92 272.938 256.201 273.219C256.482 273.501 256.64 273.882 256.64 274.28C256.64 274.678 256.482 275.059 256.201 275.341C255.92 275.622 255.538 275.78 255.14 275.78H185.42C182.834 275.78 180.354 276.807 178.526 278.636C176.697 280.464 175.67 282.944 175.67 285.53C175.67 288.116 176.697 290.596 178.526 292.424C180.354 294.253 182.834 295.28 185.42 295.28H255.14C255.538 295.28 255.92 295.438 256.201 295.719C256.482 296.001 256.64 296.382 256.64 296.78C256.64 297.178 256.482 297.559 256.201 297.841C255.92 298.122 255.538 298.28 255.14 298.28V298.28Z" fill="#263238"/>
<path d="M182.14 276.06V294.06" stroke="#263238" stroke-miterlimit="10"/>
<path d="M182.14 282.13H196.5" stroke="#263238" stroke-miterlimit="10"/>
<path d="M186.79 285.77H197.11" stroke="#263238" stroke-miterlimit="10"/>
<path d="M182.55 289.61H204.39" stroke="#263238" stroke-miterlimit="10"/>
<path d="M177.64 247.47H245.39C251.61 247.47 256.64 253.17 256.64 260.19C256.64 267.21 251.64 272.92 245.39 272.92H177.64C184.07 258.61 177.64 247.47 177.64 247.47Z" fill="#20AD46" stroke="#263238" stroke-miterlimit="10"/>
<path d="M146.56 248.94H214.31C217.294 248.94 220.155 250.125 222.265 252.235C224.375 254.345 225.56 257.206 225.56 260.19C225.56 263.174 224.375 266.035 222.265 268.145C220.155 270.255 217.294 271.44 214.31 271.44H146.56C153 258.8 146.56 248.94 146.56 248.94Z" fill="white" stroke="#263238" stroke-miterlimit="10"/>
<path d="M144.58 272.94H214.31C217.692 272.94 220.935 271.597 223.326 269.206C225.717 266.815 227.06 263.572 227.06 260.19C227.06 256.808 225.717 253.565 223.326 251.174C220.935 248.783 217.692 247.44 214.31 247.44H144.58C144.182 247.44 143.801 247.598 143.519 247.879C143.238 248.161 143.08 248.542 143.08 248.94C143.08 249.338 143.238 249.719 143.519 250.001C143.801 250.282 144.182 250.44 144.58 250.44H214.31C216.896 250.44 219.376 251.467 221.204 253.296C223.033 255.124 224.06 257.604 224.06 260.19C224.06 262.776 223.033 265.256 221.204 267.084C219.376 268.913 216.896 269.94 214.31 269.94H144.58C144.182 269.94 143.801 270.098 143.519 270.379C143.238 270.661 143.08 271.042 143.08 271.44C143.08 271.838 143.238 272.219 143.519 272.501C143.801 272.782 144.182 272.94 144.58 272.94V272.94Z" fill="#20AD46" stroke="#263238" stroke-miterlimit="10"/>
<path d="M217.58 250.73V268.72" stroke="#263238" stroke-miterlimit="10"/>
<path d="M217.58 256.79H203.23" stroke="#263238" stroke-miterlimit="10"/>
<path d="M212.93 260.43H202.62" stroke="#263238" stroke-miterlimit="10"/>
<path d="M217.18 264.27H195.34" stroke="#263238" stroke-miterlimit="10"/>
<path d="M593.24 238C589.39 237 585.15 234.77 577.46 234.77C570.81 234.77 567.19 238.1 566.34 238.99C565.49 238.1 561.87 234.77 555.22 234.77C547.54 234.77 543.29 236.99 539.45 238C535.977 238.787 532.466 239.395 528.93 239.82V248.52H603.75V239.82C600.218 239.395 596.71 238.788 593.24 238V238Z" fill="white" stroke="#263238" stroke-miterlimit="10"/>
<path d="M566.34 245.93C562.455 242.96 557.679 241.391 552.79 241.48C547.116 241.758 541.487 242.64 536 244.11" stroke="#263238" stroke-miterlimit="10"/>
<path d="M568 244.31C568 244.31 571.44 241.31 579.73 242.09C588.02 242.87 600.15 245.09 600.15 245.09" stroke="#263238" stroke-miterlimit="10"/>
<path d="M573.42 240.27C573.42 240.27 575.04 239.46 581.1 240.27" stroke="#263238" stroke-miterlimit="10"/>
<path d="M566.75 245.12C566.75 245.12 566.14 240.67 558.66 238.85C553.417 237.61 547.924 237.958 542.88 239.85" stroke="#263238" stroke-miterlimit="10"/>
<path d="M604.76 234C595.66 232.58 587.37 221.86 577.67 224.9C567.97 227.94 566.34 239 566.34 239C567.768 236.341 569.961 234.17 572.634 232.769C575.308 231.368 578.34 230.801 581.34 231.14C592.05 232.14 596.1 238.42 605.4 238.42" stroke="#263238" stroke-miterlimit="10"/>
<path d="M604 249H536.25C533.266 249 530.405 250.185 528.295 252.295C526.185 254.405 525 257.266 525 260.25C525 263.234 526.185 266.095 528.295 268.205C530.405 270.315 533.266 271.5 536.25 271.5H604C597.58 258.85 604 249 604 249Z" fill="white" stroke="#263238" stroke-miterlimit="10"/>
<path d="M606 273H536.25C532.868 273 529.625 271.657 527.234 269.266C524.843 266.875 523.5 263.632 523.5 260.25C523.5 256.868 524.843 253.625 527.234 251.234C529.625 248.843 532.868 247.5 536.25 247.5H606C606.398 247.5 606.779 247.658 607.061 247.939C607.342 248.221 607.5 248.602 607.5 249C607.5 249.398 607.342 249.779 607.061 250.061C606.779 250.342 606.398 250.5 606 250.5H536.25C533.664 250.5 531.184 251.527 529.356 253.356C527.527 255.184 526.5 257.664 526.5 260.25C526.5 262.836 527.527 265.316 529.356 267.144C531.184 268.973 533.664 270 536.25 270H606C606.398 270 606.779 270.158 607.061 270.439C607.342 270.721 607.5 271.102 607.5 271.5C607.5 271.898 607.342 272.279 607.061 272.561C606.779 272.842 606.398 273 606 273Z" fill="#263238"/>
<path d="M532.98 250.78V268.78" stroke="#263238" stroke-miterlimit="10"/>
<path d="M532.98 256.85H547.33" stroke="#263238" stroke-miterlimit="10"/>
<path d="M537.63 260.49H547.94" stroke="#263238" stroke-miterlimit="10"/>
<path d="M533.38 264.33H555.22" stroke="#263238" stroke-miterlimit="10"/>
<path d="M597.33 274.28H529.58C526.596 274.28 523.735 275.465 521.625 277.575C519.515 279.685 518.33 282.546 518.33 285.53C518.33 288.514 519.515 291.375 521.625 293.485C523.735 295.595 526.596 296.78 529.58 296.78H597.33C590.91 284.13 597.33 274.28 597.33 274.28Z" fill="white" stroke="#263238" stroke-miterlimit="10"/>
<path d="M599.31 298.28H529.58C526.199 298.28 522.956 296.937 520.564 294.546C518.173 292.155 516.83 288.912 516.83 285.53C516.83 282.149 518.173 278.905 520.564 276.514C522.956 274.123 526.199 272.78 529.58 272.78H599.31C599.708 272.78 600.089 272.938 600.371 273.219C600.652 273.501 600.81 273.882 600.81 274.28C600.81 274.678 600.652 275.059 600.371 275.341C600.089 275.622 599.708 275.78 599.31 275.78H529.58C526.994 275.78 524.514 276.807 522.686 278.636C520.857 280.464 519.83 282.944 519.83 285.53C519.83 288.116 520.857 290.596 522.686 292.424C524.514 294.253 526.994 295.28 529.58 295.28H599.31C599.708 295.28 600.089 295.438 600.371 295.719C600.652 296.001 600.81 296.382 600.81 296.78C600.81 297.178 600.652 297.559 600.371 297.841C600.089 298.122 599.708 298.28 599.31 298.28V298.28Z" fill="#20AD46" stroke="#263238" stroke-miterlimit="10"/>
<path d="M526.31 276.06V294.06" stroke="#263238" stroke-miterlimit="10"/>
<path d="M526.31 282.13H540.67" stroke="#263238" stroke-miterlimit="10"/>
<path d="M530.96 285.77H541.27" stroke="#263238" stroke-miterlimit="10"/>
<path d="M526.71 289.61H548.55" stroke="#263238" stroke-miterlimit="10"/>
<path opacity="0.2" d="M615 309.99L612.1 303.65H606.37H596.22H135.83L132 468L159 320L377 472H607H615H698L615 309.99Z" fill="black"/>
<path d="M601.41 471.5H607V300.38H593L601.41 471.5Z" fill="white" stroke="#263238" stroke-miterlimit="10"/>
<path d="M134.59 471.5H129V300.38H143L134.59 471.5Z" fill="white" stroke="#263238" stroke-miterlimit="10"/>
<path d="M142.82 303.76H128.84V308.77H142.82V303.76Z" fill="#263238"/>
<path d="M601.29 299.08H503.59V452.8H601.29V299.08Z" fill="white" stroke="#263238" stroke-miterlimit="10"/>
<path d="M607 303.65H503.3V312.01H607V303.65Z" fill="#263238" stroke="#263238" stroke-miterlimit="10"/>
<path d="M614 297H124V305H614V297Z" fill="white" stroke="#263238" stroke-miterlimit="10"/>
<path d="M595.42 360.8H511.4V402.16H595.42V360.8Z" fill="white" stroke="#263238" stroke-miterlimit="10"/>
<path d="M564.16 378.52H544.62V384.43H564.16V378.52Z" fill="#263238" stroke="#263238" stroke-miterlimit="10"/>
<path d="M595.42 406.88H511.4V448.24H595.42V406.88Z" fill="white" stroke="#263238" stroke-miterlimit="10"/>
<path d="M564.16 424.61H544.62V430.52H564.16V424.61Z" fill="#263238" stroke="#263238" stroke-miterlimit="10"/>
<path d="M520.23 356.26L538.17 379.06H606.58V331.21L594.62 319.25L520.23 356.26Z" fill="#263238" stroke="#263238" stroke-miterlimit="10"/>
<path d="M595.42 314.72H511.4V356.08H595.42V314.72Z" fill="white" stroke="#263238" stroke-miterlimit="10"/>
<path d="M564.16 332.44H544.62V338.35H564.16V332.44Z" fill="#263238" stroke="#263238" stroke-miterlimit="10"/>
<path d="M440.82 449.25L465.68 465.89C466.094 466.135 466.437 466.483 466.675 466.9C466.914 467.317 467.039 467.789 467.04 468.27V468.27C467.038 468.655 466.955 469.035 466.798 469.386C466.64 469.737 466.41 470.051 466.124 470.308C465.838 470.565 465.501 470.759 465.135 470.878C464.769 470.998 464.383 471.039 464 471L422.63 466.6C422.135 466.548 421.66 466.383 421.24 466.117C420.82 465.851 420.467 465.491 420.209 465.066C419.952 464.641 419.796 464.161 419.754 463.666C419.713 463.17 419.787 462.672 419.97 462.21L425.19 446.9L440.82 449.25Z" fill="white" stroke="#263238" stroke-miterlimit="10"/>
<path d="M313 445L286.24 466.11C285.826 466.357 285.483 466.707 285.245 467.126C285.007 467.545 284.881 468.018 284.88 468.5V468.5C284.881 468.888 284.963 469.271 285.121 469.625C285.279 469.979 285.51 470.296 285.798 470.555C286.087 470.815 286.426 471.01 286.795 471.13C287.164 471.25 287.554 471.291 287.94 471.25L329.31 466.85C329.804 466.796 330.278 466.629 330.697 466.363C331.116 466.096 331.468 465.737 331.726 465.313C331.984 464.888 332.142 464.411 332.185 463.916C332.229 463.421 332.159 462.923 331.98 462.46L329.5 445H313Z" fill="white" stroke="#263238" stroke-miterlimit="10"/>
<path d="M331.64 251.2C331.64 251.2 328.64 242.54 327.64 240.2C326.64 237.86 318.99 240.87 318.99 240.87C318.99 240.87 314.99 238.87 313.33 239.87C311.67 240.87 310.33 243.87 310.33 243.87C310.33 243.87 306.33 242.54 305.33 244.87C304.706 246.366 304.259 247.93 304 249.53C304 249.53 301.33 250.53 301.33 251.86C301.33 253.19 300 259.86 302.67 260.86C305.34 261.86 305.33 255.53 305.33 255.53C305.33 255.53 308.66 260.19 310.99 261.86C313.32 263.53 319.31 263.19 319.31 263.19L331.64 251.2Z" fill="white" stroke="#263238" stroke-miterlimit="10"/>
<path d="M332 249.53C330.133 248.966 328.126 249.086 326.34 249.87C323.68 251.2 315.02 262.87 313.69 265.51C312.36 268.15 311.69 273.51 312.69 274.83C313.69 276.15 315.35 273.83 315.35 273.83C315.35 273.83 317.35 272.17 318.68 271.17C321.329 269.521 324.268 268.391 327.34 267.84C331 267.18 338.34 255.19 338.34 255.19L337.68 252.53L332 249.53Z" fill="white" stroke="#263238" stroke-miterlimit="10"/>
<path d="M496.07 242.88C496.07 242.88 521.7 228.88 524.7 227.88C527.7 226.88 538.35 223.55 543.34 223.55C548.33 223.55 550.99 223.55 551.66 224.55C552.33 225.55 559.66 229.55 561.31 230.87C562.96 232.19 565.64 235.53 563.64 235.87C561.64 236.21 558.32 234.53 557.32 234.53H548.32C546.66 234.53 540 236.86 536.67 238.2C533.34 239.54 524.67 238.53 524.67 238.53L506.03 260.53L496.07 242.88Z" fill="white" stroke="#263238" stroke-miterlimit="10"/>
<path d="M340.5 313C340.5 313 330 318 328.5 323.5C327 329 313 445 313 445H329.5L365.5 345.5C365.5 345.5 354 309.5 340.5 313Z" fill="#263238" stroke="#263238" stroke-miterlimit="10"/>
<path d="M334.96 335.75L330 327.5" stroke="#8A8A8A" stroke-miterlimit="10"/>
<path d="M341.29 299.46C341.29 299.46 335 331.75 335 335.75C335 339.75 344.32 348.39 349.32 349.75C354.32 351.11 458.5 357.4 458.5 357.4L425.21 446.94C426.423 448.243 427.937 449.228 429.62 449.808C431.302 450.389 433.102 450.547 434.86 450.27L440.86 449.27C440.86 449.27 460.12 417 462.45 411C464.78 405 496.74 348.42 496.74 343.1C496.74 337.78 492.08 334.44 492.08 334.44L421.51 314.14L417.18 312.14L341.29 299.46Z" fill="#263238" stroke="#263238" stroke-miterlimit="10"/>
<path d="M458.46 357.38L481 358" stroke="#8A8A8A" stroke-miterlimit="10"/>
<path d="M385.56 184.29C385.56 184.29 355.27 182.96 354.27 186.29C353.27 189.62 348 216.58 348 216.58C348 216.58 328.36 255.52 322.36 262.85C316.36 270.18 318.04 280.16 327.69 282.49C337.34 284.82 345 278.49 345 278.49C345 278.49 338.68 297.49 340.34 300.79C342 304.09 373.63 312.45 390.6 313.79C407.57 315.13 417.23 314.79 419.9 312.46C422.57 310.13 425.9 284.46 427.9 281.17C429.9 277.88 435.56 254.54 435.56 254.54C435.56 254.54 460.19 285.83 466.56 286.16C472.93 286.49 499.51 267.52 499.51 267.52C499.51 267.52 495.18 257.52 491.51 253.2C487.84 248.88 482.19 249.2 482.19 249.2L473.54 253.86C473.54 253.86 458.22 230.23 455.89 225.57C453.56 220.91 455.23 209.92 453.23 207.57C451.23 205.22 435.23 204.57 435.23 204.57L387.96 183.57L385.56 184.29Z" fill="white" stroke="#263238" stroke-miterlimit="10"/>
<path d="M401.53 215.12C393.15 221.42 377.79 234.35 374.36 246.57" stroke="#263238" stroke-miterlimit="10"/>
<path d="M407 211.2C407 211.2 405.89 211.94 404.07 213.2" stroke="#263238" stroke-miterlimit="10"/>
<path d="M370.88 239.89C370.175 241.118 369.739 242.481 369.6 243.89" stroke="#263238" stroke-miterlimit="10"/>
<path d="M377.76 229.57C375.578 232.313 373.574 235.192 371.76 238.19" stroke="#263238" stroke-miterlimit="10"/>
<path d="M472.11 148C472.11 148 472.44 155.65 471.11 159.32C469.78 162.99 465.78 165.97 465.78 167.64C465.78 169.31 471.78 179.95 470.44 180.95C469.1 181.95 460.79 183.28 460.79 183.28C460.79 183.28 452.13 196.93 450.79 197.6C449.45 198.27 434.15 192.6 434.15 192.6L430.15 196.6L405.53 184L416.18 174.68C416.18 174.68 423.84 164.68 423.18 154.37C422.52 144.06 420.18 135.07 432.84 129.08C445.5 123.09 459.84 127.41 467.79 134.73C475.74 142.05 472.11 148 472.11 148Z" fill="white" stroke="#263238" stroke-miterlimit="10"/>
<path d="M441.81 167H447.81L448.14 157.68C448.14 157.68 459.14 157.35 460.45 155.68C461.76 154.01 458.79 146.68 461.79 146.03C464.79 145.38 473.44 150.36 473.44 150.36C473.44 150.36 481.76 149.69 480.76 137.36C479.76 125.03 461.12 117.05 446.14 117.05C431.16 117.05 418.85 126.37 417.52 135.69C416.19 145.01 417.85 157.33 418.18 164.32C418.51 171.31 411.18 176.64 415.18 178.32C419.18 180 435.18 174.32 437.82 171C440.46 167.68 441.81 167 441.81 167Z" fill="#263238" stroke="#263238" stroke-miterlimit="10"/>
<path d="M443.15 168.31C443.15 168.31 440.15 155.31 437.15 159.31C434.15 163.31 434.15 172.62 436.49 175.31C438.83 178 440.82 175.98 440.82 175.98" fill="white"/>
<path d="M443.15 168.31C443.15 168.31 440.15 155.31 437.15 159.31C434.15 163.31 434.15 172.62 436.49 175.31C438.83 178 440.82 175.98 440.82 175.98" stroke="#263238" stroke-miterlimit="10"/>
<path d="M441.48 163.65L472.11 168.31" stroke="#263238" stroke-miterlimit="10"/>
<path d="M469.74 175.92C470.867 175.097 471.788 174.023 472.429 172.783C473.07 171.543 473.414 170.171 473.434 168.775C473.453 167.379 473.148 165.998 472.541 164.74C471.935 163.483 471.044 162.384 469.94 161.53" stroke="#263238" stroke-miterlimit="10"/>
<path d="M434.82 201.6C434.82 201.6 424.51 189.6 417.82 185.6C411.13 181.6 397.82 176.95 393.82 178.28C389.82 179.61 385.5 184.28 385.5 184.28C385.5 184.28 400.81 190.28 413.79 196.28C421.275 199.789 429.077 202.578 437.09 204.61L434.82 201.6Z" fill="white" stroke="#263238" stroke-miterlimit="10"/>
<path d="M358.52 198.31L359.6 191.95" stroke="#263238" stroke-miterlimit="10"/>
<path d="M344.95 278.49L357.55 204.01" stroke="#263238" stroke-miterlimit="10"/>
<path d="M351.94 239.88L348.28 219.24" stroke="#263238" stroke-miterlimit="10"/>
<path d="M345.43 235.12L343.29 231.23" stroke="#263238" stroke-miterlimit="10"/>
<path d="M350.61 244.54L347.55 238.98" stroke="#263238" stroke-miterlimit="10"/>
<path d="M449.57 237.84L453.46 233.22" stroke="#263238" stroke-miterlimit="10"/>
<path d="M440.48 236.55L435.49 254.53L446.38 241.62" stroke="#263238" stroke-miterlimit="10"/>
<path d="M456.74 244.92L459.79 243.54" stroke="#263238" stroke-miterlimit="10"/>
<path d="M435.49 254.53L453.25 246.5" stroke="#263238" stroke-miterlimit="10"/>
<path d="M481.76 268.51C479.43 265.84 473.44 253.86 473.44 253.86L485.09 265.18" stroke="#263238" stroke-miterlimit="10"/>
<path d="M478.76 250.2C478.76 250.2 486.42 255.2 490.76 261.52C495.1 267.84 495.08 274.17 495.76 275.83C496.189 277.12 496.412 278.47 496.42 279.83L508.74 271.18C512.07 268.85 513.4 269.18 512.4 265.85C511.4 262.52 504.08 248.21 498.09 242.85C492.1 237.49 487.77 241.18 487.77 241.18L476.45 249.5C476.45 249.5 475.1 249.87 478.76 250.2Z" fill="white" stroke="#263238" stroke-miterlimit="10"/>
<path d="M435.82 256.71H335.2V325.8H435.82V256.71Z" fill="#20AD46" stroke="#263238" stroke-miterlimit="10"/>
<path d="M430.72 351.3H339.38V368.92H430.72V351.3Z" fill="#20AD46" stroke="#263238" stroke-miterlimit="10"/>
<path d="M339.84 256.71H335.2V471.5H339.84V256.71Z" fill="white" stroke="#263238" stroke-miterlimit="10"/>
<path d="M435.36 256.71H430.72V471.5H435.36V256.71Z" fill="white" stroke="#263238" stroke-miterlimit="10"/>
<path d="M33 471.5H706" stroke="#263238" stroke-miterlimit="10"/>
</svg>
