<svg width="25" height="24" viewBox="0 0 25 24" fill="none" xmlns="http://www.w3.org/2000/svg">
<g clip-path="url(#clip0_615_7)">
<path d="M9.05106 20.9256C17.4231 20.9256 22.0014 14.0579 22.0014 8.10248C22.0014 7.90742 21.9974 7.71323 21.9886 7.51993C22.8773 6.88377 23.6497 6.08989 24.259 5.18617C23.4434 5.54511 22.5658 5.78674 21.6451 5.8957C22.5849 5.33774 23.3063 4.45512 23.6467 3.40294C22.7672 3.91916 21.7934 4.29435 20.7564 4.49692C19.9259 3.62091 18.7434 3.073 17.434 3.073C14.9205 3.073 12.8822 5.09134 12.8822 7.57923C12.8822 7.93289 12.9222 8.27689 13.0002 8.60686C9.21735 8.41838 5.86296 6.62501 3.61801 3.89807C3.22712 4.5641 3.00173 5.33776 3.00173 6.16327C3.00173 7.72688 3.80528 9.10723 5.02721 9.91476C4.28046 9.89191 3.57897 9.68893 2.96584 9.35108C2.96517 9.36999 2.96517 9.38843 2.96517 9.40864C2.96517 11.5913 4.53409 13.4136 6.61675 13.8266C6.23428 13.9298 5.83188 13.9852 5.41655 13.9852C5.12372 13.9852 4.83842 13.9566 4.56111 13.9039C5.14057 15.6946 6.82087 16.9977 8.813 17.0341C7.25518 18.2432 5.29275 18.9633 3.15992 18.9633C2.79298 18.9633 2.43049 18.9426 2.07422 18.9009C4.08861 20.1794 6.48051 20.9253 9.0513 20.9253" fill="white"/>
</g>
<defs>
<clipPath id="clip0_615_7">
<rect width="22.3333" height="18" fill="white" transform="translate(2 3)"/>
</clipPath>
</defs>
</svg>
