<svg width="131" height="129" viewBox="0 0 131 129" fill="none" xmlns="http://www.w3.org/2000/svg">
<g filter="url(#filter0_b_1035_44)">
<rect y="0.94873" width="130.539" height="128.05" rx="16" fill="white"/>
<path d="M16 62.5103V32.9487H45.5616V39.3537H22.9792V44.527H41.1607V50.932H22.9792V56.1053H45.5616V62.5103H16Z" fill="black"/>
<path d="M50.4885 62.5103V32.9487H57.0577L73.604 52.6564V32.9487H80.0501V62.5103H73.4808L56.8525 42.7205V62.5103H50.4885Z" fill="black"/>
<path d="M84.977 62.5103V56.2285H91.4254V62.5103H84.977Z" fill="black"/>
<path d="M92.7909 62.5103V56.1464L112.221 32.9487H114.539V39.2716L95.109 62.5103H92.7909Z" fill="black"/>
<path d="M22.0765 96.9988C20.9817 96.9988 19.9689 96.7251 19.0383 96.1777C18.1076 95.6302 17.3686 94.8912 16.8212 93.9605C16.2737 93.0299 16 92.0171 16 90.9223V73.5138C16 72.3915 16.2737 71.3788 16.8212 70.4755C17.3686 69.5449 18.1076 68.8058 19.0383 68.2584C19.9689 67.7109 20.9817 67.4372 22.0765 67.4372H39.444C40.5662 67.4372 41.579 67.7109 42.4822 68.2584C43.4129 68.8058 44.1519 69.5449 44.6994 70.4755C45.2742 71.3788 45.5616 72.3915 45.5616 73.5138V76.3057H39.1155V73.8422H22.3639V90.5938H39.1155V86.1596H32.7105V79.7546H45.5616V90.9223C45.5616 92.0171 45.2742 93.0299 44.6994 93.9605C44.1519 94.8912 43.4129 95.6302 42.4822 96.1777C41.579 96.7251 40.5662 96.9988 39.444 96.9988H22.0765Z" fill="black"/>
<path d="M50.4885 96.9988V67.4372H56.3423L65.2693 79.385L74.1597 67.4372H80.0501V96.9988H74.3426V77.1679L65.2693 89.321L56.1593 77.209V96.9988H50.4885Z" fill="black"/>
<path d="M84.977 96.9988V73.5138C84.977 72.3915 85.2507 71.3788 85.7982 70.4755C86.3456 69.5449 87.0846 68.8058 88.0153 68.2584C88.9459 67.7109 89.9587 67.4372 91.0535 67.4372H108.421C109.543 67.4372 110.556 67.7109 111.459 68.2584C112.39 68.8058 113.129 69.5449 113.676 70.4755C114.251 71.3788 114.539 72.3915 114.539 73.5138V96.9988H108.093V87.4734H91.341V96.9988H84.977ZM91.341 81.0684H108.093V73.8422H91.341V81.0684Z" fill="black"/>
<rect x="0.5" y="1.44873" width="129.539" height="127.05" rx="15.5" stroke="black" stroke-opacity="0.12"/>
</g>
<defs>
<filter id="filter0_b_1035_44" x="-32" y="-31.0513" width="194.539" height="192.05" filterUnits="userSpaceOnUse" color-interpolation-filters="sRGB">
<feFlood flood-opacity="0" result="BackgroundImageFix"/>
<feGaussianBlur in="BackgroundImageFix" stdDeviation="16"/>
<feComposite in2="SourceAlpha" operator="in" result="effect1_backgroundBlur_1035_44"/>
<feBlend mode="normal" in="SourceGraphic" in2="effect1_backgroundBlur_1035_44" result="shape"/>
</filter>
</defs>
</svg>
